<svg width="40" height="40" viewBox="0 0 40 40" fill="none" xmlns="http://www.w3.org/2000/svg">
<path d="M30.6783 23.36C31.3312 21.7646 31.6669 20.0572 31.6667 18.3333C31.6673 15.4761 30.7501 12.6942 29.0502 10.3976C27.3503 8.10105 24.9577 6.41129 22.2248 5.57737C19.4919 4.74346 16.5635 4.80949 13.871 5.76575C11.1785 6.722 8.86442 8.51789 7.26976 10.8888C5.6751 13.2596 4.88423 16.08 5.0137 18.9343C5.14317 21.7887 6.18613 24.5259 7.98887 26.7427C9.79162 28.9594 12.2588 30.5384 15.0268 31.247C17.7948 31.9556 20.7172 31.7562 23.3633 30.6783" stroke="white" stroke-width="2.2" stroke-linecap="round" stroke-linejoin="round"/>
<path d="M18.3333 13.5533V12.4917" stroke="white" stroke-width="2.2" stroke-linecap="round" stroke-linejoin="round"/>
<path d="M18.3333 23.0984V24.1584" stroke="white" stroke-width="2.2" stroke-linecap="round" stroke-linejoin="round"/>
<path d="M15.5716 21.96C15.9833 22.635 16.6866 23.1 17.5383 23.1H19.2816C19.8279 23.1017 20.3558 22.9031 20.7655 22.5418C21.1753 22.1805 21.4384 21.6816 21.5051 21.1395C21.5718 20.5973 21.4375 20.0495 21.1276 19.5997C20.8177 19.1498 20.3537 18.8292 19.8233 18.6984L16.84 17.9484C16.3126 17.8148 15.852 17.4933 15.5449 17.0443C15.2377 16.5952 15.105 16.0495 15.1717 15.5095C15.2384 14.9696 15.4999 14.4725 15.9071 14.1117C16.3143 13.7509 16.8393 13.5512 17.3833 13.55H19.1283C19.9766 13.55 20.68 14.015 21.09 14.6884" stroke="white" stroke-width="2.2" stroke-linecap="round" stroke-linejoin="round"/>
<path d="M30 23.3333C31.7681 23.3333 33.4638 24.0357 34.714 25.286C35.9643 26.5362 36.6666 28.2319 36.6666 30C36.6666 31.7681 35.9643 33.4638 34.714 34.7141C33.4638 35.9643 31.7681 36.6667 30 36.6667C28.2319 36.6667 26.5362 35.9643 25.2859 34.7141C24.0357 33.4638 23.3333 31.7681 23.3333 30C23.3333 28.2319 24.0357 26.5362 25.2859 25.286C26.5362 24.0357 28.2319 23.3333 30 23.3333Z" stroke="white" stroke-width="2.2" stroke-linecap="round" stroke-linejoin="round"/>
<path d="M27.8 30.2184H32.2667" stroke="white" stroke-width="2.2" stroke-linecap="round" stroke-linejoin="round"/>
<path d="M30.0316 32.4517V27.985" stroke="white" stroke-width="2.2" stroke-linecap="round" stroke-linejoin="round"/>
</svg>
