<svg version="1.2" xmlns="http://www.w3.org/2000/svg" viewBox="0 0 300 150" width="300" height="150"><style>.a{fill:#ebf2fc}.b{fill:#0b52e1}.c{fill:#fff}</style><path fill-rule="evenodd" class="a" d="m71.9 145c-38.7-0.5-70-32.3-70-71 0-38.7 31.3-69.5 70-69 38.7 0.6 70 32.3 70 71 0 38.8-31.3 69.6-70 69z"/><path class="b" d="m71.9 10c-34.7-0.5-65 29.4-65 64.1 0 34.6 30.3 65.4 65 65.9 34.6 0.5 65-29.4 65-64 0-34.7-30.4-65.5-65-66zm0 15c26.9 0.4 49.7 23.6 49.7 50.7 0 27.2-22.8 49.7-49.7 49.3-26.9-0.4-49.8-23.6-49.8-50.7 0-27.2 22.9-49.7 49.8-49.3z"/><path class="b" d="m71.9 45l25 30.4-25 29.6-25-30.3z"/><path class="c" d="m71.9 55l15 20.2-15 19.8-15-20.2z"/><path  d="m163.9 66.9q-8.8 0-13.3-5.1-4.5-5-4.5-13 0-6.8 3-12.6 1.7-3.4 4.4-6 2.6-2.6 7.1-4.3 4.5-1.6 10.2-1.6 1.9 0 3.4 0.3 1.5 0.4 1.5 0.5 0 2.9-0.4 6.6-0.3 3.7-0.4 3.7-0.3 0.3-2.5 1-2.2 0.6-3.3 0.6v-0.3q0-2.7-0.7-3.8-0.8-1.1-2.7-1.1-4.3 0-8 4.5-3.6 4.5-3.6 12.3 0 4.1 2 7.4 1.1 1.7 3.1 2.8 2.1 1.1 5 1.1 5.6 0 10.9-5.2 0.3 0 1 0.8 0.8 0.7 1.5 1.9 1.5 2.4 1.5 3 0 0.5-1.9 2-1.8 1.5-5.6 3-3.8 1.5-7.7 1.5zm19.2-10l-0.1-13.6q0-3.6 0.2-3.8 0.7-0.7 2.3-1.1 1.6-0.6 3-0.6 1.5 0 1.5 0.3-0.2 1.6-0.2 3.7 0 2.1 0.1 2.1 0.1 0 0.2-0.1 0.2-0.2 0.4-0.5 0.3-0.4 1.1-1.2 0.9-0.9 2-1.5 2.5-1.6 5.5-1.6 0.5 0.7 0.5 2.4 0 3.4-0.9 4.8l-0.2 0.5-0.8-0.1q-4.3 0-6.8 3.5-0.9 1.5-0.9 2.2v5.3q0 7.2-0.2 7.3-1.7 1.7-6.6 1.7-0.5 0-0.5-0.2 0.4-2.4 0.4-9.5zm41-8.6l0.1 15.9q0 4.7-1.3 8.4-1.2 3.6-3 5.6-1.7 2-4 3.2-3.7 2.1-7.6 2.1-0.2 0-0.7-0.9-0.5-0.9-1-2.4-0.5-1.5-0.5-2.8 2.3 0 4.6-0.9 2.2-0.9 3.1-1.8 0.9-1.1 1.8-2.6 1.9-2.9 1.9-9.5l-0.1-1.7q0-0.4-0.1-0.4-0.1 0-0.2 0.2-0.1 0.2-0.3 0.5-0.2 0.2-0.9 0.9-0.7 0.7-1.5 1.2-2.1 1.5-4.2 1.5-2.1 0-3.4-0.6-1.2-0.5-2-1.4-0.8-0.8-1.3-2.3-0.6-1.6-0.9-2.9-0.3-1.3-0.4-3.6-0.2-3.2-0.2-6.6 0-4.7 0.4-7.7l0.2-0.9q0-0.4 1.8-0.8 1.9-0.4 3.1-0.4l1.9 0.3q-0.7 5.9-0.7 10 0 4.1 0.9 6.8 0.8 2.7 2.8 2.7 2 0 3.1-1.2 1.2-1.2 1.5-2.3l0.3-1.1q-0.1-3.8-0.1-8.1 0-4.4 0.3-4.7 0.8-0.8 2.7-1.2 2-0.4 3.2-0.4 1.2 0 1.2 0.1-0.5 2.9-0.5 9.8zm12.7-12.4l-0.1 2.8q16 0 16 12.4 0 3.3-1.4 6.1-1.3 2.7-3.3 4.3-2 1.6-4.3 2.7-4.1 1.8-7.2 1.8v0.9q0 9 0.4 12-0.7 0.8-2.7 1.3-1.9 0.4-3.1 0.4-1.2 0-1.2-0.2-0.2-1.9-0.2-7.9l0.3-27.9q0-4.9-0.2-6.8 0.7-0.8 2.4-1.4 1.7-0.7 3-0.7 1.3 0 1.6 0.2zm-0.2 11.6l-0.1 8.9v3q3.7 0 6.4-2.1 2.8-2.1 2.8-6.1 0-6.5-9.1-6.5v0.8q0 0.8 0 2zm28.5-21.8q-0.1 1.4-0.3 7.6 4.5 0 4.5 0.1 0 2.1-0.6 3.7-0.6 1.6-1.2 1.6h-2.8q-0.1 8.8-0.1 14.4 0 5.5 0.2 7.4 0.3 3.1 2.4 5.1 0 0.7-2.3 1.9-2.3 1.3-4.3 1.3-0.2 0-0.7-0.6-0.5-0.6-1.1-2-0.6-1.4-0.7-2.7-0.2-1.3-0.2-9.4 0-8.1 0.2-15.3h-3.3q-0.3-0.3-0.3-2.5 0-2.4 0.5-2.9 1.3 0 3.2-0.1 0-3.5-0.2-4.5-0.2-1-0.2-1.2 0-0.6 2.1-1.4 2.1-0.7 3.6-0.7 1.6 0 1.6 0.2zm30.5 26.8q0 5.7-3.5 9.9-3.4 4.2-9.3 4.2-5.9 0-9.3-3.7-3.3-3.7-3.3-9.5 0-5.9 4.1-10.4 4.2-4.5 11.3-4.5 2.9 0.1 3.1 0.3 0.3 0.3 0.3 1.2 0 0.9-0.2 2 0.9 0 2.3 1 1.4 1.1 2.3 2.1 0.9 1.1 1.6 3.1 0.6 1.9 0.6 4.3zm-8.7-4.2q-1.4-0.9-2.7-0.9h-0.5q-0.1-0.2-0.1-1 0-0.8 0.1-1.5-2.4 0-4.6 2.2-2.1 2.2-2.1 6.2 0 4.7 3 6.5 1.2 0.7 3.1 0.7 2.1 0 3.8-1.9 1.8-1.8 1.8-5.5 0-3.6-1.8-4.8z"/><path  d="m153.3 123l-1.8-0.2q-0.2-0.6-0.2-8.2 0-7.6 0.1-10.6-1-1-2-3-1-2-1-3.5 0 0 3.1-0.1 0.1-2.6 0.1-5.9 0-3.3-0.1-3.3-0.6-0.7-1.7-3.1-1-2.6-1-3.3 0.6-0.6 20.8-0.6 5 0 5 0.2 0 1.3-0.6 2.8-0.5 1.5-1.2 2.4-0.6 0.8-0.8 0.7-0.1 0-2.1 0-2 0-6.1 0.3-4.2 0.2-4.5 0.6-0.4 0.3-0.4 6.5l0.1 2.5q5.6-0.1 8.6-0.1 3 0 3 0.1 0 2.4-1.4 5-0.5 0.9-0.6 0.9h-0.6q-2 0-5.4 0.3-3.4 0.3-3.6 0.4-0.2 0.2-0.2 7.5 0 7.4 0.8 10 0 0.8-2.3 1.3-2.3 0.4-4 0.4zm26.1-10.5l0.3-21.7q0-4.8-0.2-6.5-0.1-1.6-0.1-1.8 0-0.6 2-1.3 2-0.8 3.6-0.8 1.6 0 1.6 0.2-0.3 2.2-0.3 15.6l-0.2 14.7q0 4.2 0.2 5.1 0.3 2.7 1.7 4.8 0 0.6-2.5 1.9-2.4 1.4-4.2 1.4-0.4 0-1-1.8-0.6-1.8-0.8-3.2-0.1-1.3-0.1-6.6zm37.6-4q0 5.7-3.4 9.9-3.5 4.2-9.4 4.2-5.9 0-9.2-3.7-3.4-3.7-3.4-9.5 0-5.9 4.1-10.4 4.2-4.5 11.3-4.5 2.9 0.1 3.1 0.3 0.3 0.3 0.3 1.2 0 0.9-0.2 2 0.9 0 2.3 1 1.4 1.1 2.3 2.1 0.9 1.1 1.6 3.1 0.6 1.9 0.6 4.3zm-8.7-4.2q-1.4-0.9-2.7-0.9h-0.5q-0.1-0.2-0.1-1 0-0.8 0.2-1.5-2.5 0-4.7 2.2-2.1 2.2-2.1 6.2 0 4.7 3 6.5 1.2 0.7 3.2 0.7 2 0 3.7-1.9 1.8-1.8 1.8-5.5 0-3.6-1.8-4.8zm29.9-6.6q4 0 4.2 0.8 1.9 11.2 3.1 13.7h0.3q1.3-2.8 2.9-9.9 1.6-7 1.9-9.9 3.6 0 5.9 1.2 0.7 0.4 0.7 0.5 0 2.7-1.9 9.3-1.8 6.7-3.6 12.1-1.8 5.4-2.1 5.7-0.2 0.2-2.1 0.5-1.8 0.3-3.4 0.3-1.6 0-2-0.3-0.6-0.5-2-5.8-1.5-5.3-2-8.9h-0.2q-0.9 3.6-2.4 8.6-1.5 5-1.9 5.4-0.4 0.4-2.4 0.8-2 0.3-3.2 0.3-1.2 0-1.4-0.1-0.5-0.5-3.6-11.9-3.1-11.5-3.1-14.4 0-0.1 0.6-0.4 0.6-0.5 2.2-0.8 1.6-0.4 3.6-0.4 2.2 13 4.1 17.2 0.1 0.3 0.3 0 1-2 2.1-6.1 1-4.2 1.3-6.7 0-0.3 1.4-0.5 1.4-0.3 2.7-0.3z"/></svg>