<svg width="22" height="22" viewBox="0 0 22 22" fill="none" xmlns="http://www.w3.org/2000/svg">
<circle cx="11.1295" cy="11.1606" r="2.64249" stroke="white" stroke-width="2" stroke-linecap="round" stroke-linejoin="round"/>
<path fill-rule="evenodd" clip-rule="evenodd" d="M17.6477 13.8031C17.4078 14.3467 17.5229 14.9815 17.9384 15.4062L17.9912 15.4591C18.322 15.7895 18.5079 16.2379 18.5079 16.7054C18.5079 17.173 18.322 17.6214 17.9912 17.9518C17.6608 18.2826 17.2124 18.4685 16.7448 18.4685C16.2773 18.4685 15.8289 18.2826 15.4985 17.9518L15.4456 17.899C15.0209 17.4835 14.3861 17.3684 13.8425 17.6083C13.3101 17.8365 12.964 18.3591 12.9617 18.9383V19.0881C12.9617 20.061 12.173 20.8497 11.2 20.8497C10.2271 20.8497 9.43836 20.061 9.43836 19.0881V19.0088C9.4244 18.4122 9.04716 17.8847 8.48706 17.6788C7.94351 17.4389 7.30868 17.554 6.88395 17.9694L6.8311 18.0223C6.50067 18.3531 6.05229 18.5389 5.58473 18.5389C5.11717 18.5389 4.66879 18.3531 4.33836 18.0223C4.00756 17.6918 3.82169 17.2435 3.82169 16.7759C3.82169 16.3083 4.00756 15.86 4.33836 15.5295L4.39121 15.4767C4.80666 15.052 4.92177 14.4171 4.68188 13.8736C4.45369 13.3411 3.9311 12.9951 3.35183 12.9927H3.20209C2.22915 12.9927 1.44043 12.204 1.44043 11.2311C1.44043 10.2581 2.22915 9.46942 3.20209 9.46942H3.28136C3.87797 9.45547 4.40542 9.07822 4.61141 8.51813C4.8513 7.97458 4.7362 7.33974 4.32074 6.91502L4.26789 6.86217C3.93709 6.53174 3.75122 6.08336 3.75122 5.6158C3.75122 5.14824 3.93709 4.69986 4.26789 4.36942C4.59832 4.03863 5.0467 3.85275 5.51426 3.85275C5.98182 3.85275 6.43021 4.03863 6.76064 4.36942L6.81349 4.42227C7.23821 4.83773 7.87304 4.95284 8.4166 4.71295H8.48706C9.0195 4.48475 9.36558 3.96217 9.36789 3.3829V3.23315C9.36789 2.26022 10.1566 1.4715 11.1295 1.4715C12.1025 1.4715 12.8912 2.26022 12.8912 3.23315V3.31243C12.8935 3.8917 13.2396 4.41429 13.772 4.64248C14.3156 4.88237 14.9504 4.76726 15.3751 4.35181L15.428 4.29896C15.7584 3.96816 16.2068 3.78229 16.6744 3.78229C17.1419 3.78229 17.5903 3.96816 17.9207 4.29896C18.2515 4.62939 18.4374 5.07777 18.4374 5.54533C18.4374 6.01289 18.2515 6.46127 17.9207 6.7917L17.8679 6.84455C17.4524 7.26928 17.3373 7.90411 17.5772 8.44766V8.51813C17.8054 9.05056 18.328 9.39665 18.9073 9.39896H19.057C20.0299 9.39896 20.8187 10.1877 20.8187 11.1606C20.8187 12.1336 20.0299 12.9223 19.057 12.9223H18.9777C18.3985 12.9246 17.8759 13.2707 17.6477 13.8031Z" stroke="white" stroke-width="2" stroke-linecap="round" stroke-linejoin="round"/>
</svg>
