<svg width="21" height="30" viewBox="0 0 21 30" fill="none" xmlns="http://www.w3.org/2000/svg">
<path d="M1.44043 7.02176L0.726982 6.32105L0.0387862 7.02176L0.726982 7.72247L1.44043 7.02176ZM7.48289 11.747L2.15388 6.32105L0.726982 7.72247L6.056 13.1484L7.48289 11.747ZM2.15388 7.72247L7.48289 2.29656L6.056 0.895148L0.726982 6.32105L2.15388 7.72247ZM1.44212 8.02176H18.8808V6.02176H1.44212V8.02176Z" fill="white"/>
<path d="M18.8825 23.2995L19.596 24.0002L20.2842 23.2995L19.596 22.5988L18.8825 23.2995ZM12.84 18.5743L18.1691 24.0002L19.596 22.5988L14.2669 17.1729L12.84 18.5743ZM18.1691 22.5988L12.84 28.0247L14.2669 29.4261L19.596 24.0002L18.1691 22.5988ZM18.8808 22.2995H1.4404V24.2995H18.8808V22.2995Z" fill="white"/>
</svg>
